<?xml version="1.0" encoding="utf-8"?>
<svg version="1.1" id="Capa_1" xmlns="http://www.w3.org/2000/svg" xmlns:xlink="http://www.w3.org/1999/xlink" x="0px" y="0px"
	 viewBox="0 0 30 34.3" style="enable-background:new 0 0 30 34.3;" xml:space="preserve">
<style type="text/css">
	.st0{fill:#FFFFFF;}
</style>
<path class="st0" d="M25.5,6.5C22.7,3.7,19,2.1,15,2.1C6.8,2.1,0.1,8.8,0.1,17c0,2.6,0.7,5.2,2,7.4L0,32.1l7.9-2.1
	c2.2,1.2,4.6,1.8,7.1,1.8h0c8.2,0,15-6.7,15-14.9C30,13,28.3,9.3,25.5,6.5z M15,29.4c-2.2,0-4.4-0.6-6.3-1.7l-0.4-0.3l-4.7,1.2
	l1.2-4.6l-0.3-0.5c-1.2-2-1.9-4.2-1.9-6.6C2.6,10.2,8.2,4.7,15,4.7c3.3,0,6.4,1.3,8.7,3.6s3.8,5.4,3.8,8.7
	C27.5,23.8,21.8,29.4,15,29.4z M21.8,20.1c-0.4-0.2-2.2-1.1-2.5-1.2c-0.3-0.1-0.6-0.2-0.8,0.2c-0.2,0.4-1,1.2-1.2,1.5
	c-0.2,0.2-0.4,0.3-0.8,0.1c-2.2-1.1-3.6-1.9-5.1-4.4c-0.4-0.7,0.4-0.6,1.1-2c0.1-0.2,0.1-0.5,0-0.6c-0.1-0.2-0.8-2-1.1-2.8
	c-0.3-0.7-0.6-0.6-0.8-0.6c-0.2,0-0.5,0-0.7,0c-0.2,0-0.6,0.1-1,0.5c-0.3,0.4-1.3,1.3-1.3,3.1s1.3,3.6,1.5,3.8
	c0.2,0.2,2.6,4,6.3,5.6c2.4,1,3.3,1.1,4.5,0.9c0.7-0.1,2.2-0.9,2.5-1.8c0.3-0.9,0.3-1.6,0.2-1.8C22.4,20.4,22.1,20.3,21.8,20.1z"/>
</svg>
